{
	"patcher" : 	{
		"fileversion" : 1,
		"appversion" : 		{
			"major" : 5,
			"minor" : 1,
			"revision" : 9
		}
,
		"rect" : [ 301.0, 176.0, 723.0, 267.0 ],
		"bgcolor" : [ 0.615686, 0.6, 0.6, 1.0 ],
		"bglocked" : 0,
		"defrect" : [ 301.0, 176.0, 723.0, 267.0 ],
		"openrect" : [ 0.0, 0.0, 0.0, 0.0 ],
		"openinpresentation" : 1,
		"default_fontsize" : 12.0,
		"default_fontface" : 0,
		"default_fontname" : "Arial",
		"gridonopen" : 0,
		"gridsize" : [ 15.0, 15.0 ],
		"gridsnaponopen" : 0,
		"toolbarvisible" : 1,
		"boxanimatetime" : 200,
		"imprint" : 0,
		"enablehscroll" : 1,
		"enablevscroll" : 1,
		"devicewidth" : 0.0,
		"boxes" : [ 			{
				"box" : 				{
					"maxclass" : "newobj",
					"text" : "adc~",
					"id" : "obj-1",
					"fontname" : "Arial",
					"presentation_rect" : [ 569.0, 219.0, 37.0, 20.0 ],
					"fontsize" : 12.0,
					"numinlets" : 1,
					"patching_rect" : [ 391.0, 49.0, 37.0, 20.0 ],
					"presentation" : 1,
					"numoutlets" : 2,
					"outlettype" : [ "signal", "signal" ]
				}

			}
, 			{
				"box" : 				{
					"maxclass" : "comment",
					"text" : "2",
					"id" : "obj-44",
					"frgb" : [ 0.6, 0.329412, 0.329412, 1.0 ],
					"fontname" : "Arial",
					"presentation_rect" : [ 598.0, 158.0, 39.0, 34.0 ],
					"fontsize" : 24.0,
					"numinlets" : 1,
					"patching_rect" : [ 677.0, 160.0, 240.0, 34.0 ],
					"presentation" : 1,
					"numoutlets" : 0,
					"textcolor" : [ 0.6, 0.329412, 0.329412, 1.0 ]
				}

			}
, 			{
				"box" : 				{
					"maxclass" : "comment",
					"text" : "studio",
					"id" : "obj-42",
					"frgb" : [ 0.235294, 0.235294, 0.235294, 1.0 ],
					"fontname" : "Arial",
					"presentation_rect" : [ 567.0, 125.0, 47.0, 20.0 ],
					"fontface" : 1,
					"fontsize" : 12.0,
					"numinlets" : 1,
					"patching_rect" : [ 623.0, 106.0, 161.0, 20.0 ],
					"presentation" : 1,
					"numoutlets" : 0,
					"textcolor" : [ 0.235294, 0.235294, 0.235294, 1.0 ]
				}

			}
, 			{
				"box" : 				{
					"maxclass" : "comment",
					"text" : "5",
					"id" : "obj-40",
					"frgb" : [ 0.407843, 0.407843, 0.407843, 1.0 ],
					"fontname" : "Arial",
					"presentation_rect" : [ 584.0, 158.0, 39.0, 34.0 ],
					"fontsize" : 24.0,
					"numinlets" : 1,
					"patching_rect" : [ 662.0, 145.0, 240.0, 34.0 ],
					"presentation" : 1,
					"numoutlets" : 0,
					"textcolor" : [ 0.407843, 0.407843, 0.407843, 1.0 ]
				}

			}
, 			{
				"box" : 				{
					"maxclass" : "comment",
					"text" : "P",
					"id" : "obj-38",
					"fontname" : "Arial",
					"presentation_rect" : [ 564.0, 127.0, 57.0, 72.0 ],
					"fontsize" : 57.0,
					"numinlets" : 1,
					"patching_rect" : [ 633.0, 140.0, 415.0, 72.0 ],
					"presentation" : 1,
					"numoutlets" : 0
				}

			}
, 			{
				"box" : 				{
					"maxclass" : "comment",
					"text" : "012",
					"id" : "obj-36",
					"frgb" : [ 0.607843, 0.427451, 0.427451, 1.0 ],
					"fontname" : "Arial",
					"presentation_rect" : [ 612.0, 167.0, 37.0, 20.0 ],
					"fontface" : 1,
					"fontsize" : 12.0,
					"numinlets" : 1,
					"patching_rect" : [ 613.0, 150.0, 150.0, 20.0 ],
					"presentation" : 1,
					"numoutlets" : 0,
					"textcolor" : [ 0.607843, 0.427451, 0.427451, 1.0 ]
				}

			}
, 			{
				"box" : 				{
					"maxclass" : "comment",
					"text" : "Ovidiu Cincheza",
					"id" : "obj-34",
					"frgb" : [ 0.623529, 0.141176, 0.141176, 1.0 ],
					"fontname" : "Arial",
					"presentation_rect" : [ 605.0, 136.0, 89.0, 18.0 ],
					"fontface" : 1,
					"fontsize" : 10.0,
					"numinlets" : 1,
					"patching_rect" : [ 604.0, 191.0, 135.0, 18.0 ],
					"presentation" : 1,
					"numoutlets" : 0,
					"textcolor" : [ 0.623529, 0.141176, 0.141176, 1.0 ]
				}

			}
, 			{
				"box" : 				{
					"maxclass" : "comment",
					"text" : "Marte Roel",
					"id" : "obj-30",
					"frgb" : [ 0.623529, 0.141176, 0.141176, 1.0 ],
					"fontname" : "Arial",
					"presentation_rect" : [ 605.0, 149.0, 62.0, 18.0 ],
					"fontface" : 1,
					"fontsize" : 10.0,
					"numinlets" : 1,
					"patching_rect" : [ 582.0, 161.0, 138.0, 18.0 ],
					"presentation" : 1,
					"numoutlets" : 0,
					"textcolor" : [ 0.623529, 0.141176, 0.141176, 1.0 ]
				}

			}
, 			{
				"box" : 				{
					"maxclass" : "comment",
					"text" : "  Set time to wait before next picture\n    may be taken",
					"linecount" : 3,
					"presentation_linecount" : 3,
					"id" : "obj-28",
					"fontname" : "Arial",
					"presentation_rect" : [ 580.0, 57.0, 128.0, 48.0 ],
					"fontsize" : 12.0,
					"numinlets" : 1,
					"patching_rect" : [ 546.0, 261.0, 138.0, 48.0 ],
					"presentation" : 1,
					"numoutlets" : 0
				}

			}
, 			{
				"box" : 				{
					"maxclass" : "button",
					"id" : "obj-27",
					"numinlets" : 1,
					"patching_rect" : [ 262.0, 313.0, 20.0, 20.0 ],
					"numoutlets" : 1,
					"outlettype" : [ "bang" ]
				}

			}
, 			{
				"box" : 				{
					"maxclass" : "newobj",
					"text" : "gate",
					"id" : "obj-24",
					"fontname" : "Arial",
					"fontsize" : 12.0,
					"numinlets" : 2,
					"patching_rect" : [ 150.0, 248.0, 34.0, 20.0 ],
					"numoutlets" : 1,
					"outlettype" : [ "" ]
				}

			}
, 			{
				"box" : 				{
					"maxclass" : "newobj",
					"text" : "loadbang",
					"id" : "obj-21",
					"fontname" : "Arial",
					"fontsize" : 12.0,
					"numinlets" : 1,
					"patching_rect" : [ 228.0, 216.0, 60.0, 20.0 ],
					"numoutlets" : 1,
					"outlettype" : [ "bang" ]
				}

			}
, 			{
				"box" : 				{
					"maxclass" : "flonum",
					"id" : "obj-14",
					"fontname" : "Arial",
					"minimum" : 0.0,
					"maximum" : 5.0,
					"presentation_rect" : [ 585.0, 16.0, 90.0, 36.0 ],
					"fontsize" : 25.497433,
					"numinlets" : 1,
					"patching_rect" : [ 437.0, 260.0, 72.0, 36.0 ],
					"presentation" : 1,
					"numoutlets" : 2,
					"outlettype" : [ "float", "bang" ]
				}

			}
, 			{
				"box" : 				{
					"maxclass" : "newobj",
					"text" : "* 1000.",
					"id" : "obj-17",
					"fontname" : "Arial",
					"fontsize" : 12.0,
					"numinlets" : 2,
					"patching_rect" : [ 439.0, 296.0, 49.0, 20.0 ],
					"numoutlets" : 1,
					"outlettype" : [ "float" ]
				}

			}
, 			{
				"box" : 				{
					"maxclass" : "newobj",
					"text" : "delay 1000",
					"id" : "obj-11",
					"fontname" : "Arial",
					"fontsize" : 12.0,
					"numinlets" : 2,
					"patching_rect" : [ 262.0, 285.0, 69.0, 20.0 ],
					"numoutlets" : 1,
					"outlettype" : [ "bang" ]
				}

			}
, 			{
				"box" : 				{
					"maxclass" : "toggle",
					"id" : "obj-10",
					"numinlets" : 1,
					"patching_rect" : [ 228.0, 304.0, 20.0, 20.0 ],
					"numoutlets" : 1,
					"outlettype" : [ "int" ]
				}

			}
, 			{
				"box" : 				{
					"maxclass" : "flonum",
					"id" : "obj-2",
					"fontname" : "Arial",
					"minimum" : 0.0,
					"maximum" : 2.0,
					"presentation_rect" : [ 453.0, 16.0, 90.0, 36.0 ],
					"fontsize" : 25.497433,
					"numinlets" : 1,
					"patching_rect" : [ 430.0, 107.0, 72.0, 36.0 ],
					"presentation" : 1,
					"numoutlets" : 2,
					"outlettype" : [ "float", "bang" ]
				}

			}
, 			{
				"box" : 				{
					"maxclass" : "comment",
					"text" : "    Delay time of \ntransient to picture\n      in seconds",
					"linecount" : 3,
					"presentation_linecount" : 3,
					"id" : "obj-25",
					"fontname" : "Arial",
					"presentation_rect" : [ 442.0, 57.0, 115.0, 48.0 ],
					"fontsize" : 12.0,
					"numinlets" : 1,
					"patching_rect" : [ 543.0, 155.0, 120.0, 48.0 ],
					"presentation" : 1,
					"numoutlets" : 0
				}

			}
, 			{
				"box" : 				{
					"maxclass" : "newobj",
					"text" : "loadmess 0.5",
					"id" : "obj-23",
					"fontname" : "Arial",
					"fontsize" : 12.0,
					"numinlets" : 1,
					"patching_rect" : [ 429.0, 85.0, 82.0, 20.0 ],
					"numoutlets" : 1,
					"outlettype" : [ "" ]
				}

			}
, 			{
				"box" : 				{
					"maxclass" : "newobj",
					"text" : "s delayTime",
					"id" : "obj-22",
					"fontname" : "Arial",
					"fontsize" : 12.0,
					"numinlets" : 1,
					"patching_rect" : [ 432.0, 174.0, 75.0, 20.0 ],
					"numoutlets" : 0
				}

			}
, 			{
				"box" : 				{
					"maxclass" : "newobj",
					"text" : "* 1000.",
					"id" : "obj-20",
					"fontname" : "Arial",
					"fontsize" : 12.0,
					"numinlets" : 2,
					"patching_rect" : [ 432.0, 143.0, 49.0, 20.0 ],
					"numoutlets" : 1,
					"outlettype" : [ "float" ]
				}

			}
, 			{
				"box" : 				{
					"maxclass" : "comment",
					"text" : "Input Monitor",
					"id" : "obj-15",
					"fontname" : "Arial",
					"presentation_rect" : [ 196.0, 221.0, 102.0, 23.0 ],
					"fontface" : 1,
					"fontsize" : 14.0,
					"numinlets" : 1,
					"patching_rect" : [ 543.0, 90.0, 122.0, 23.0 ],
					"presentation" : 1,
					"numoutlets" : 0
				}

			}
, 			{
				"box" : 				{
					"maxclass" : "comment",
					"text" : " Set\nLevel",
					"linecount" : 2,
					"presentation_linecount" : 2,
					"id" : "obj-13",
					"fontname" : "Arial",
					"presentation_rect" : [ 24.0, 208.0, 50.0, 39.0 ],
					"fontface" : 1,
					"fontsize" : 14.0,
					"numinlets" : 1,
					"patching_rect" : [ 543.0, 115.0, 121.0, 39.0 ],
					"presentation" : 1,
					"numoutlets" : 0
				}

			}
, 			{
				"box" : 				{
					"maxclass" : "comment",
					"text" : "Take Picture",
					"id" : "obj-9",
					"fontname" : "Arial",
					"presentation_rect" : [ 450.0, 218.0, 93.0, 23.0 ],
					"fontface" : 1,
					"fontsize" : 14.0,
					"numinlets" : 1,
					"patching_rect" : [ 543.0, 65.0, 96.0, 23.0 ],
					"presentation" : 1,
					"numoutlets" : 0
				}

			}
, 			{
				"box" : 				{
					"maxclass" : "button",
					"id" : "obj-7",
					"presentation_rect" : [ 452.0, 114.0, 92.0, 92.0 ],
					"numinlets" : 1,
					"patching_rect" : [ 262.0, 248.0, 20.0, 20.0 ],
					"presentation" : 1,
					"numoutlets" : 1,
					"outlettype" : [ "bang" ]
				}

			}
, 			{
				"box" : 				{
					"maxclass" : "newobj",
					"text" : "loadmess 50",
					"id" : "obj-5",
					"fontname" : "Arial",
					"fontsize" : 12.0,
					"numinlets" : 1,
					"patching_rect" : [ 51.0, 22.0, 79.0, 20.0 ],
					"numoutlets" : 1,
					"outlettype" : [ "" ]
				}

			}
, 			{
				"box" : 				{
					"maxclass" : "levelmeter~",
					"id" : "obj-79",
					"presentation_rect" : [ 64.0, 24.0, 360.0, 180.0 ],
					"numinlets" : 1,
					"patching_rect" : [ 71.0, 66.0, 274.0, 137.0 ],
					"presentation" : 1,
					"numoutlets" : 1,
					"outlettype" : [ "int" ]
				}

			}
, 			{
				"box" : 				{
					"maxclass" : "slider",
					"id" : "obj-120",
					"presentation_rect" : [ 29.0, 22.0, 29.0, 184.149994 ],
					"numinlets" : 1,
					"size" : 500.0,
					"patching_rect" : [ 51.0, 67.0, 20.0, 140.0 ],
					"presentation" : 1,
					"numoutlets" : 1,
					"outlettype" : [ "" ]
				}

			}
, 			{
				"box" : 				{
					"maxclass" : "newobj",
					"text" : "p sound",
					"id" : "obj-3",
					"fontname" : "Arial",
					"fontsize" : 12.0,
					"numinlets" : 1,
					"patching_rect" : [ 51.0, 229.0, 53.0, 20.0 ],
					"numoutlets" : 2,
					"outlettype" : [ "signal", "bang" ],
					"patcher" : 					{
						"fileversion" : 1,
						"appversion" : 						{
							"major" : 5,
							"minor" : 1,
							"revision" : 9
						}
,
						"rect" : [ 100.0, 90.0, 1272.0, 782.0 ],
						"bglocked" : 0,
						"defrect" : [ 100.0, 90.0, 1272.0, 782.0 ],
						"openrect" : [ 0.0, 0.0, 0.0, 0.0 ],
						"openinpresentation" : 0,
						"default_fontsize" : 12.0,
						"default_fontface" : 0,
						"default_fontname" : "Arial",
						"gridonopen" : 0,
						"gridsize" : [ 15.0, 15.0 ],
						"gridsnaponopen" : 0,
						"toolbarvisible" : 1,
						"boxanimatetime" : 200,
						"imprint" : 0,
						"enablehscroll" : 1,
						"enablevscroll" : 1,
						"devicewidth" : 0.0,
						"boxes" : [ 							{
								"box" : 								{
									"maxclass" : "newobj",
									"text" : "r delayTime",
									"id" : "obj-18",
									"fontname" : "Arial",
									"fontsize" : 12.0,
									"numinlets" : 0,
									"patching_rect" : [ 947.0, 521.0, 73.0, 20.0 ],
									"numoutlets" : 1,
									"outlettype" : [ "" ]
								}

							}
, 							{
								"box" : 								{
									"maxclass" : "outlet",
									"id" : "obj-16",
									"numinlets" : 1,
									"patching_rect" : [ 242.0, 464.0, 25.0, 25.0 ],
									"numoutlets" : 0,
									"comment" : ""
								}

							}
, 							{
								"box" : 								{
									"maxclass" : "newobj",
									"text" : "delay 1000",
									"id" : "obj-14",
									"fontname" : "Arial",
									"fontsize" : 12.0,
									"numinlets" : 2,
									"patching_rect" : [ 897.0, 585.0, 69.0, 20.0 ],
									"numoutlets" : 1,
									"outlettype" : [ "bang" ]
								}

							}
, 							{
								"box" : 								{
									"maxclass" : "newobj",
									"text" : "scale 0 500 0. 0.5",
									"id" : "obj-105",
									"fontname" : "Arial",
									"fontsize" : 12.0,
									"numinlets" : 6,
									"patching_rect" : [ 866.0, 295.0, 105.0, 20.0 ],
									"numoutlets" : 1,
									"outlettype" : [ "" ]
								}

							}
, 							{
								"box" : 								{
									"maxclass" : "newobj",
									"text" : "*~ 1.",
									"id" : "obj-17",
									"fontname" : "Arial",
									"fontsize" : 12.0,
									"numinlets" : 2,
									"patching_rect" : [ 791.0, 313.0, 36.0, 20.0 ],
									"numoutlets" : 1,
									"outlettype" : [ "signal" ]
								}

							}
, 							{
								"box" : 								{
									"maxclass" : "newobj",
									"text" : "loadmess 0.017",
									"id" : "obj-11",
									"fontname" : "Arial",
									"fontsize" : 12.0,
									"numinlets" : 1,
									"patching_rect" : [ 846.0, 480.0, 95.0, 20.0 ],
									"numoutlets" : 1,
									"outlettype" : [ "" ]
								}

							}
, 							{
								"box" : 								{
									"maxclass" : "newobj",
									"text" : "peakamp~ 125",
									"id" : "obj-12",
									"fontname" : "Arial",
									"fontsize" : 12.0,
									"numinlets" : 2,
									"patching_rect" : [ 493.0, 343.0, 90.0, 20.0 ],
									"numoutlets" : 1,
									"outlettype" : [ "float" ]
								}

							}
, 							{
								"box" : 								{
									"maxclass" : "newobj",
									"text" : "delay 50",
									"id" : "obj-2",
									"fontname" : "Arial",
									"fontsize" : 12.0,
									"numinlets" : 2,
									"patching_rect" : [ 309.0, 44.0, 56.0, 20.0 ],
									"numoutlets" : 1,
									"outlettype" : [ "bang" ]
								}

							}
, 							{
								"box" : 								{
									"maxclass" : "newobj",
									"text" : "loadbang",
									"id" : "obj-13",
									"fontname" : "Arial",
									"fontsize" : 12.0,
									"numinlets" : 1,
									"patching_rect" : [ 309.0, 23.0, 60.0, 20.0 ],
									"numoutlets" : 1,
									"outlettype" : [ "bang" ]
								}

							}
, 							{
								"box" : 								{
									"maxclass" : "toggle",
									"id" : "obj-21",
									"numinlets" : 1,
									"patching_rect" : [ 309.0, 66.0, 20.0, 20.0 ],
									"numoutlets" : 1,
									"outlettype" : [ "int" ]
								}

							}
, 							{
								"box" : 								{
									"maxclass" : "newobj",
									"text" : "adc~",
									"id" : "obj-22",
									"fontname" : "Arial",
									"fontsize" : 11.595187,
									"numinlets" : 1,
									"patching_rect" : [ 309.0, 86.0, 40.0, 20.0 ],
									"numoutlets" : 2,
									"outlettype" : [ "signal", "signal" ]
								}

							}
, 							{
								"box" : 								{
									"maxclass" : "outlet",
									"id" : "obj-9",
									"numinlets" : 1,
									"patching_rect" : [ 897.0, 720.0, 25.0, 25.0 ],
									"numoutlets" : 0,
									"comment" : ""
								}

							}
, 							{
								"box" : 								{
									"maxclass" : "button",
									"id" : "obj-39",
									"outlinecolor" : [ 0.0, 1.0, 1.0, 1.0 ],
									"blinkcolor" : [ 1.0, 0.090196, 0.090196, 1.0 ],
									"numinlets" : 1,
									"patching_rect" : [ 620.0, 743.0, 33.0, 33.0 ],
									"bgcolor" : [ 0.6, 1.0, 0.0, 0.74902 ],
									"numoutlets" : 1,
									"outlettype" : [ "bang" ]
								}

							}
, 							{
								"box" : 								{
									"maxclass" : "newobj",
									"text" : "if $i1 > 400 then bang",
									"id" : "obj-37",
									"fontname" : "Arial",
									"fontsize" : 12.0,
									"numinlets" : 1,
									"patching_rect" : [ 620.0, 717.0, 126.0, 20.0 ],
									"numoutlets" : 1,
									"outlettype" : [ "" ]
								}

							}
, 							{
								"box" : 								{
									"maxclass" : "newobj",
									"text" : "timer",
									"id" : "obj-36",
									"fontname" : "Arial",
									"fontsize" : 12.0,
									"numinlets" : 2,
									"patching_rect" : [ 620.0, 694.0, 37.0, 20.0 ],
									"numoutlets" : 2,
									"outlettype" : [ "float", "" ]
								}

							}
, 							{
								"box" : 								{
									"maxclass" : "button",
									"id" : "obj-33",
									"numinlets" : 1,
									"patching_rect" : [ 628.0, 669.0, 17.0, 17.0 ],
									"numoutlets" : 1,
									"outlettype" : [ "bang" ]
								}

							}
, 							{
								"box" : 								{
									"maxclass" : "newobj",
									"text" : "edge~",
									"id" : "obj-34",
									"fontname" : "Arial",
									"fontsize" : 12.0,
									"numinlets" : 1,
									"patching_rect" : [ 628.0, 641.0, 44.0, 20.0 ],
									"numoutlets" : 2,
									"outlettype" : [ "bang", "bang" ]
								}

							}
, 							{
								"box" : 								{
									"maxclass" : "newobj",
									"text" : "bitand~",
									"id" : "obj-32",
									"fontname" : "Arial",
									"fontsize" : 12.0,
									"numinlets" : 2,
									"patching_rect" : [ 615.0, 613.0, 50.0, 20.0 ],
									"numoutlets" : 1,
									"outlettype" : [ "signal" ]
								}

							}
, 							{
								"box" : 								{
									"maxclass" : "newobj",
									"text" : "average~ 200 rms",
									"id" : "obj-31",
									"fontname" : "Arial",
									"fontsize" : 12.0,
									"numinlets" : 1,
									"patching_rect" : [ 723.0, 428.0, 108.0, 20.0 ],
									"numoutlets" : 1,
									"outlettype" : [ "signal" ]
								}

							}
, 							{
								"box" : 								{
									"maxclass" : "button",
									"id" : "obj-28",
									"numinlets" : 1,
									"patching_rect" : [ 681.0, 588.0, 17.0, 17.0 ],
									"numoutlets" : 1,
									"outlettype" : [ "bang" ]
								}

							}
, 							{
								"box" : 								{
									"maxclass" : "newobj",
									"text" : "edge~",
									"id" : "obj-29",
									"fontname" : "Arial",
									"fontsize" : 12.0,
									"numinlets" : 1,
									"patching_rect" : [ 681.0, 563.0, 44.0, 20.0 ],
									"numoutlets" : 2,
									"outlettype" : [ "bang", "bang" ]
								}

							}
, 							{
								"box" : 								{
									"maxclass" : "flonum",
									"id" : "obj-27",
									"fontname" : "Arial",
									"fontsize" : 12.0,
									"numinlets" : 1,
									"patching_rect" : [ 700.0, 503.0, 101.0, 20.0 ],
									"numoutlets" : 2,
									"outlettype" : [ "float", "bang" ]
								}

							}
, 							{
								"box" : 								{
									"maxclass" : "newobj",
									"text" : ">~",
									"id" : "obj-25",
									"fontname" : "Arial",
									"fontsize" : 12.0,
									"numinlets" : 2,
									"patching_rect" : [ 686.0, 525.0, 32.5, 20.0 ],
									"numoutlets" : 1,
									"outlettype" : [ "signal" ]
								}

							}
, 							{
								"box" : 								{
									"maxclass" : "newobj",
									"text" : "delay~ 4400 400",
									"id" : "obj-20",
									"fontname" : "Arial",
									"fontsize" : 12.0,
									"numinlets" : 2,
									"patching_rect" : [ 493.0, 403.0, 100.0, 20.0 ],
									"numoutlets" : 1,
									"outlettype" : [ "signal" ]
								}

							}
, 							{
								"box" : 								{
									"maxclass" : "newobj",
									"text" : "+~ 0",
									"id" : "obj-15",
									"fontname" : "Arial",
									"fontsize" : 12.0,
									"numinlets" : 2,
									"patching_rect" : [ 611.0, 509.0, 35.0, 20.0 ],
									"numoutlets" : 1,
									"outlettype" : [ "signal" ]
								}

							}
, 							{
								"box" : 								{
									"maxclass" : "newobj",
									"text" : "biquad~",
									"id" : "obj-1",
									"fontname" : "Arial",
									"fontsize" : 11.595187,
									"numinlets" : 6,
									"patching_rect" : [ 493.0, 369.0, 79.0, 20.0 ],
									"numoutlets" : 1,
									"outlettype" : [ "signal" ]
								}

							}
, 							{
								"box" : 								{
									"maxclass" : "button",
									"id" : "obj-10",
									"numinlets" : 1,
									"patching_rect" : [ 565.0, 586.0, 23.0, 23.0 ],
									"numoutlets" : 1,
									"outlettype" : [ "bang" ]
								}

							}
, 							{
								"box" : 								{
									"maxclass" : "newobj",
									"text" : "edge~",
									"id" : "obj-8",
									"fontname" : "Arial",
									"fontsize" : 12.0,
									"numinlets" : 1,
									"patching_rect" : [ 611.0, 563.0, 44.0, 20.0 ],
									"numoutlets" : 2,
									"outlettype" : [ "bang", "bang" ]
								}

							}
, 							{
								"box" : 								{
									"maxclass" : "newobj",
									"text" : ">~ 3",
									"id" : "obj-7",
									"fontname" : "Arial",
									"fontsize" : 12.0,
									"numinlets" : 2,
									"patching_rect" : [ 611.0, 536.0, 35.0, 20.0 ],
									"numoutlets" : 1,
									"outlettype" : [ "signal" ]
								}

							}
, 							{
								"box" : 								{
									"maxclass" : "newobj",
									"text" : "/~",
									"id" : "obj-4",
									"fontname" : "Arial",
									"fontsize" : 12.0,
									"numinlets" : 2,
									"patching_rect" : [ 611.0, 462.0, 32.5, 20.0 ],
									"numoutlets" : 1,
									"outlettype" : [ "signal" ]
								}

							}
, 							{
								"box" : 								{
									"maxclass" : "newobj",
									"text" : "average~ 8000 rms",
									"id" : "obj-3",
									"fontname" : "Arial",
									"fontsize" : 12.0,
									"numinlets" : 1,
									"patching_rect" : [ 492.0, 428.0, 114.0, 20.0 ],
									"numoutlets" : 1,
									"outlettype" : [ "signal" ]
								}

							}
, 							{
								"box" : 								{
									"maxclass" : "newobj",
									"text" : "average~ 300 rms",
									"id" : "obj-5",
									"fontname" : "Arial",
									"fontsize" : 12.0,
									"numinlets" : 1,
									"patching_rect" : [ 611.0, 428.0, 108.0, 20.0 ],
									"numoutlets" : 1,
									"outlettype" : [ "signal" ]
								}

							}
, 							{
								"box" : 								{
									"maxclass" : "inlet",
									"id" : "obj-107",
									"numinlets" : 0,
									"patching_rect" : [ 866.0, 249.0, 25.0, 25.0 ],
									"numoutlets" : 1,
									"outlettype" : [ "" ],
									"comment" : ""
								}

							}
, 							{
								"box" : 								{
									"maxclass" : "message",
									"text" : "1",
									"id" : "obj-101",
									"fontname" : "Arial",
									"fontsize" : 12.0,
									"numinlets" : 2,
									"patching_rect" : [ 839.0, 65.0, 32.5, 18.0 ],
									"numoutlets" : 1,
									"outlettype" : [ "" ]
								}

							}
, 							{
								"box" : 								{
									"maxclass" : "message",
									"text" : "47",
									"id" : "obj-98",
									"fontname" : "Arial",
									"fontsize" : 12.0,
									"numinlets" : 2,
									"patching_rect" : [ 737.0, 65.0, 32.5, 18.0 ],
									"numoutlets" : 1,
									"outlettype" : [ "" ]
								}

							}
, 							{
								"box" : 								{
									"maxclass" : "newobj",
									"text" : "loadbang",
									"id" : "obj-97",
									"fontname" : "Arial",
									"fontsize" : 12.0,
									"numinlets" : 1,
									"patching_rect" : [ 661.0, 46.0, 60.0, 20.0 ],
									"numoutlets" : 1,
									"outlettype" : [ "bang" ]
								}

							}
, 							{
								"box" : 								{
									"maxclass" : "message",
									"text" : "2",
									"id" : "obj-96",
									"fontname" : "Arial",
									"fontsize" : 12.0,
									"numinlets" : 2,
									"patching_rect" : [ 589.0, 65.0, 32.5, 18.0 ],
									"numoutlets" : 1,
									"outlettype" : [ "" ]
								}

							}
, 							{
								"box" : 								{
									"maxclass" : "comment",
									"text" : "Post Filter",
									"id" : "obj-83",
									"fontname" : "Arial",
									"presentation_rect" : [ 44.0, 159.0, 65.0, 20.0 ],
									"fontsize" : 12.0,
									"numinlets" : 1,
									"patching_rect" : [ 46.0, 231.0, 65.0, 20.0 ],
									"presentation" : 1,
									"numoutlets" : 0
								}

							}
, 							{
								"box" : 								{
									"maxclass" : "comment",
									"text" : "Pre Filter",
									"id" : "obj-82",
									"fontname" : "Arial",
									"presentation_rect" : [ 41.0, 51.0, 59.0, 20.0 ],
									"fontsize" : 12.0,
									"numinlets" : 1,
									"patching_rect" : [ 43.0, 123.0, 59.0, 20.0 ],
									"presentation" : 1,
									"numoutlets" : 0
								}

							}
, 							{
								"box" : 								{
									"maxclass" : "levelmeter~",
									"id" : "obj-79",
									"presentation_rect" : [ 34.0, 179.0, 128.0, 64.0 ],
									"numinlets" : 1,
									"patching_rect" : [ 36.0, 251.0, 128.0, 64.0 ],
									"presentation" : 1,
									"numoutlets" : 1,
									"outlettype" : [ "int" ]
								}

							}
, 							{
								"box" : 								{
									"maxclass" : "levelmeter~",
									"id" : "obj-78",
									"presentation_rect" : [ 31.0, 72.0, 128.0, 64.0 ],
									"numinlets" : 1,
									"patching_rect" : [ 33.0, 144.0, 128.0, 64.0 ],
									"presentation" : 1,
									"numoutlets" : 1,
									"outlettype" : [ "int" ]
								}

							}
, 							{
								"box" : 								{
									"maxclass" : "spectroscope~",
									"id" : "obj-68",
									"presentation_rect" : [ 177.0, 55.0, 300.0, 100.0 ],
									"numinlets" : 2,
									"patching_rect" : [ 179.0, 127.0, 300.0, 100.0 ],
									"presentation" : 1,
									"numoutlets" : 1,
									"outlettype" : [ "" ]
								}

							}
, 							{
								"box" : 								{
									"maxclass" : "multislider",
									"id" : "obj-61",
									"presentation_rect" : [ 503.0, 167.0, 251.573532, 94.708862 ],
									"setstyle" : 3,
									"numinlets" : 1,
									"patching_rect" : [ 505.0, 245.0, 251.573532, 94.708862 ],
									"presentation" : 1,
									"setminmax" : [ 0.0, 1.0 ],
									"numoutlets" : 2,
									"outlettype" : [ "", "" ]
								}

							}
, 							{
								"box" : 								{
									"maxclass" : "spectroscope~",
									"id" : "obj-6",
									"presentation_rect" : [ 177.0, 160.0, 300.0, 100.0 ],
									"numinlets" : 2,
									"patching_rect" : [ 179.0, 232.0, 300.0, 100.0 ],
									"presentation" : 1,
									"numoutlets" : 1,
									"outlettype" : [ "" ]
								}

							}
, 							{
								"box" : 								{
									"maxclass" : "umenu",
									"id" : "obj-47",
									"fontname" : "Arial",
									"fontsize" : 11.595187,
									"numinlets" : 1,
									"types" : [  ],
									"patching_rect" : [ 501.0, 92.0, 83.0, 20.0 ],
									"items" : [ "display", ",", "lowpass", ",", "highpass", ",", "bandpass", ",", "bandstop", ",", "peaknotch", ",", "lowshelf", ",", "highshelf", ",", "resonant", ",", "allpass" ],
									"numoutlets" : 3,
									"outlettype" : [ "int", "", "" ]
								}

							}
, 							{
								"box" : 								{
									"maxclass" : "flonum",
									"id" : "obj-72",
									"fontname" : "Arial",
									"fontsize" : 11.595187,
									"numinlets" : 1,
									"patching_rect" : [ 839.0, 92.0, 50.0, 20.0 ],
									"numoutlets" : 2,
									"outlettype" : [ "float", "bang" ]
								}

							}
, 							{
								"box" : 								{
									"maxclass" : "flonum",
									"id" : "obj-74",
									"fontname" : "Arial",
									"fontsize" : 11.595187,
									"numinlets" : 1,
									"patching_rect" : [ 788.0, 92.0, 50.0, 20.0 ],
									"numoutlets" : 2,
									"outlettype" : [ "float", "bang" ]
								}

							}
, 							{
								"box" : 								{
									"maxclass" : "flonum",
									"id" : "obj-75",
									"fontname" : "Arial",
									"fontsize" : 11.595187,
									"numinlets" : 1,
									"patching_rect" : [ 737.0, 92.0, 50.0, 20.0 ],
									"numoutlets" : 2,
									"outlettype" : [ "float", "bang" ]
								}

							}
, 							{
								"box" : 								{
									"maxclass" : "filtergraph~",
									"id" : "obj-81",
									"fgcolor" : [ 0.756863, 0.756863, 1.0, 1.0 ],
									"domain" : [ 0.0, 22050.0 ],
									"presentation_rect" : [ 503.0, 55.0, 251.0, 108.629509 ],
									"hcurvecolor" : [ 1.0, 0.086275, 0.086275, 1.0 ],
									"fontsize" : 8.998901,
									"numinlets" : 8,
									"patching_rect" : [ 505.0, 127.0, 251.0, 108.629509 ],
									"bgcolor" : [ 0.913725, 0.913725, 1.0, 1.0 ],
									"presentation" : 1,
									"hbwidthcolor" : [ 0.823529, 0.290196, 0.211765, 1.0 ],
									"numoutlets" : 7,
									"bwidthcolor" : [ 0.462745, 0.47451, 0.65098, 1.0 ],
									"markercolor" : [ 0.509804, 0.509804, 0.509804, 1.0 ],
									"autoout" : 1,
									"outlettype" : [ "list", "float", "float", "float", "float", "list", "int" ],
									"nfilters" : 1,
									"setfilter" : [ 0, 2, 0, 0, 0, 47.0, 1.0, 1.0, 0.0001, 22050.0, 0.0001, 16.0, 0.5, 25.0 ]
								}

							}
 ],
						"lines" : [ 							{
								"patchline" : 								{
									"source" : [ "obj-1", 0 ],
									"destination" : [ "obj-79", 0 ],
									"hidden" : 0,
									"midpoints" : [ 502.5, 390.0, 21.0, 390.0, 21.0, 246.0, 45.5, 246.0 ]
								}

							}
, 							{
								"patchline" : 								{
									"source" : [ "obj-1", 0 ],
									"destination" : [ "obj-6", 0 ],
									"hidden" : 0,
									"midpoints" : [ 502.5, 390.0, 174.0, 390.0, 174.0, 228.0, 188.5, 228.0 ]
								}

							}
, 							{
								"patchline" : 								{
									"source" : [ "obj-21", 0 ],
									"destination" : [ "obj-22", 0 ],
									"hidden" : 0,
									"midpoints" : [ 318.5, 87.0, 318.5, 87.0 ]
								}

							}
, 							{
								"patchline" : 								{
									"source" : [ "obj-81", 0 ],
									"destination" : [ "obj-1", 1 ],
									"hidden" : 0,
									"midpoints" : [ 514.5, 237.0, 489.0, 237.0, 489.0, 363.0, 514.5, 363.0 ]
								}

							}
, 							{
								"patchline" : 								{
									"source" : [ "obj-37", 0 ],
									"destination" : [ "obj-39", 0 ],
									"hidden" : 0,
									"midpoints" : [ 629.5, 738.0, 629.5, 738.0 ]
								}

							}
, 							{
								"patchline" : 								{
									"source" : [ "obj-36", 0 ],
									"destination" : [ "obj-37", 0 ],
									"hidden" : 0,
									"midpoints" : [ 629.5, 714.0, 629.5, 714.0 ]
								}

							}
, 							{
								"patchline" : 								{
									"source" : [ "obj-1", 0 ],
									"destination" : [ "obj-5", 0 ],
									"hidden" : 0,
									"midpoints" : [ 502.5, 390.0, 620.5, 390.0 ]
								}

							}
, 							{
								"patchline" : 								{
									"source" : [ "obj-5", 0 ],
									"destination" : [ "obj-4", 0 ],
									"hidden" : 0,
									"midpoints" : [ 620.5, 450.0, 620.5, 450.0 ]
								}

							}
, 							{
								"patchline" : 								{
									"source" : [ "obj-33", 0 ],
									"destination" : [ "obj-36", 1 ],
									"hidden" : 0,
									"midpoints" : [ 637.5, 687.0, 647.5, 687.0 ]
								}

							}
, 							{
								"patchline" : 								{
									"source" : [ "obj-33", 0 ],
									"destination" : [ "obj-36", 0 ],
									"hidden" : 0,
									"midpoints" : [ 637.5, 687.0, 629.5, 687.0 ]
								}

							}
, 							{
								"patchline" : 								{
									"source" : [ "obj-1", 0 ],
									"destination" : [ "obj-31", 0 ],
									"hidden" : 0,
									"midpoints" : [ 502.5, 390.0, 732.5, 390.0 ]
								}

							}
, 							{
								"patchline" : 								{
									"source" : [ "obj-31", 0 ],
									"destination" : [ "obj-25", 0 ],
									"hidden" : 0,
									"midpoints" : [ 732.5, 489.0, 695.5, 489.0 ]
								}

							}
, 							{
								"patchline" : 								{
									"source" : [ "obj-32", 0 ],
									"destination" : [ "obj-34", 0 ],
									"hidden" : 0,
									"midpoints" : [ 624.5, 633.0, 637.5, 633.0 ]
								}

							}
, 							{
								"patchline" : 								{
									"source" : [ "obj-34", 0 ],
									"destination" : [ "obj-33", 0 ],
									"hidden" : 0,
									"midpoints" : [ 637.5, 663.0, 637.5, 663.0 ]
								}

							}
, 							{
								"patchline" : 								{
									"source" : [ "obj-7", 0 ],
									"destination" : [ "obj-32", 0 ],
									"hidden" : 0,
									"midpoints" : [ 620.5, 558.0, 606.0, 558.0, 606.0, 600.0, 624.5, 600.0 ]
								}

							}
, 							{
								"patchline" : 								{
									"source" : [ "obj-25", 0 ],
									"destination" : [ "obj-32", 1 ],
									"hidden" : 0,
									"midpoints" : [ 695.5, 546.0, 666.0, 546.0, 666.0, 600.0, 655.5, 600.0 ]
								}

							}
, 							{
								"patchline" : 								{
									"source" : [ "obj-25", 0 ],
									"destination" : [ "obj-29", 0 ],
									"hidden" : 0,
									"midpoints" : [ 695.5, 558.0, 690.5, 558.0 ]
								}

							}
, 							{
								"patchline" : 								{
									"source" : [ "obj-29", 0 ],
									"destination" : [ "obj-28", 0 ],
									"hidden" : 0,
									"midpoints" : [ 690.5, 585.0, 690.5, 585.0 ]
								}

							}
, 							{
								"patchline" : 								{
									"source" : [ "obj-27", 0 ],
									"destination" : [ "obj-25", 1 ],
									"hidden" : 0,
									"midpoints" : [ 709.5, 525.0, 709.0, 525.0 ]
								}

							}
, 							{
								"patchline" : 								{
									"source" : [ "obj-7", 0 ],
									"destination" : [ "obj-8", 0 ],
									"hidden" : 0,
									"midpoints" : [ 620.5, 558.0, 620.5, 558.0 ]
								}

							}
, 							{
								"patchline" : 								{
									"source" : [ "obj-15", 0 ],
									"destination" : [ "obj-7", 0 ],
									"hidden" : 0,
									"midpoints" : [ 620.5, 531.0, 620.5, 531.0 ]
								}

							}
, 							{
								"patchline" : 								{
									"source" : [ "obj-3", 0 ],
									"destination" : [ "obj-4", 1 ],
									"hidden" : 0,
									"midpoints" : [ 501.5, 459.0, 634.0, 459.0 ]
								}

							}
, 							{
								"patchline" : 								{
									"source" : [ "obj-20", 0 ],
									"destination" : [ "obj-3", 0 ],
									"hidden" : 0,
									"midpoints" : [ 502.5, 423.0, 501.5, 423.0 ]
								}

							}
, 							{
								"patchline" : 								{
									"source" : [ "obj-1", 0 ],
									"destination" : [ "obj-20", 0 ],
									"hidden" : 0,
									"midpoints" : [ 502.5, 390.0, 502.5, 390.0 ]
								}

							}
, 							{
								"patchline" : 								{
									"source" : [ "obj-4", 0 ],
									"destination" : [ "obj-15", 0 ],
									"hidden" : 0,
									"midpoints" : [ 620.5, 483.0, 620.5, 483.0 ]
								}

							}
, 							{
								"patchline" : 								{
									"source" : [ "obj-8", 0 ],
									"destination" : [ "obj-10", 0 ],
									"hidden" : 0,
									"midpoints" : [ 620.5, 585.0, 588.0, 585.0, 588.0, 582.0, 574.5, 582.0 ]
								}

							}
, 							{
								"patchline" : 								{
									"source" : [ "obj-101", 0 ],
									"destination" : [ "obj-72", 0 ],
									"hidden" : 0,
									"midpoints" : [ 848.5, 84.0, 848.5, 84.0 ]
								}

							}
, 							{
								"patchline" : 								{
									"source" : [ "obj-97", 0 ],
									"destination" : [ "obj-101", 0 ],
									"hidden" : 0,
									"midpoints" : [ 670.5, 66.0, 732.0, 66.0, 732.0, 51.0, 848.5, 51.0 ]
								}

							}
, 							{
								"patchline" : 								{
									"source" : [ "obj-98", 0 ],
									"destination" : [ "obj-75", 0 ],
									"hidden" : 0,
									"midpoints" : [ 746.5, 84.0, 746.5, 84.0 ]
								}

							}
, 							{
								"patchline" : 								{
									"source" : [ "obj-97", 0 ],
									"destination" : [ "obj-98", 0 ],
									"hidden" : 0,
									"midpoints" : [ 670.5, 66.0, 732.0, 66.0, 732.0, 60.0, 746.5, 60.0 ]
								}

							}
, 							{
								"patchline" : 								{
									"source" : [ "obj-97", 0 ],
									"destination" : [ "obj-96", 0 ],
									"hidden" : 0,
									"midpoints" : [ 670.5, 66.0, 633.0, 66.0, 633.0, 51.0, 598.5, 51.0 ]
								}

							}
, 							{
								"patchline" : 								{
									"source" : [ "obj-96", 0 ],
									"destination" : [ "obj-47", 0 ],
									"hidden" : 0,
									"midpoints" : [ 598.5, 84.0, 510.5, 84.0 ]
								}

							}
, 							{
								"patchline" : 								{
									"source" : [ "obj-75", 0 ],
									"destination" : [ "obj-81", 5 ],
									"hidden" : 0,
									"midpoints" : [ 746.5, 114.0, 680.214294, 114.0 ]
								}

							}
, 							{
								"patchline" : 								{
									"source" : [ "obj-74", 0 ],
									"destination" : [ "obj-81", 6 ],
									"hidden" : 0,
									"midpoints" : [ 797.5, 123.0, 713.357117, 123.0 ]
								}

							}
, 							{
								"patchline" : 								{
									"source" : [ "obj-72", 0 ],
									"destination" : [ "obj-81", 7 ],
									"hidden" : 0,
									"midpoints" : [ 848.5, 123.0, 746.5, 123.0 ]
								}

							}
, 							{
								"patchline" : 								{
									"source" : [ "obj-47", 1 ],
									"destination" : [ "obj-81", 0 ],
									"hidden" : 0,
									"midpoints" : [ 542.5, 114.0, 514.5, 114.0 ]
								}

							}
, 							{
								"patchline" : 								{
									"source" : [ "obj-13", 0 ],
									"destination" : [ "obj-2", 0 ],
									"hidden" : 0,
									"midpoints" : [ 318.5, 45.0, 318.5, 45.0 ]
								}

							}
, 							{
								"patchline" : 								{
									"source" : [ "obj-2", 0 ],
									"destination" : [ "obj-21", 0 ],
									"hidden" : 0,
									"midpoints" : [ 318.5, 66.0, 318.5, 66.0 ]
								}

							}
, 							{
								"patchline" : 								{
									"source" : [ "obj-1", 0 ],
									"destination" : [ "obj-12", 0 ],
									"hidden" : 0,
									"midpoints" : [ 502.5, 390.0, 480.0, 390.0, 480.0, 339.0, 502.5, 339.0 ]
								}

							}
, 							{
								"patchline" : 								{
									"source" : [ "obj-22", 0 ],
									"destination" : [ "obj-17", 0 ],
									"hidden" : 0,
									"midpoints" : [ 318.5, 108.0, 486.0, 108.0, 486.0, 78.0, 585.0, 78.0, 585.0, 93.0, 723.0, 93.0, 723.0, 123.0, 800.5, 123.0 ]
								}

							}
, 							{
								"patchline" : 								{
									"source" : [ "obj-11", 0 ],
									"destination" : [ "obj-27", 0 ],
									"hidden" : 0,
									"midpoints" : [ 855.5, 501.0, 813.0, 501.0, 813.0, 489.0, 709.5, 489.0 ]
								}

							}
, 							{
								"patchline" : 								{
									"source" : [ "obj-17", 0 ],
									"destination" : [ "obj-1", 0 ],
									"hidden" : 0,
									"midpoints" : [ 800.5, 357.0, 594.0, 357.0, 594.0, 366.0, 502.5, 366.0 ]
								}

							}
, 							{
								"patchline" : 								{
									"source" : [ "obj-17", 0 ],
									"destination" : [ "obj-68", 0 ],
									"hidden" : 0,
									"midpoints" : [ 800.5, 333.0, 768.0, 333.0, 768.0, 114.0, 188.5, 114.0 ]
								}

							}
, 							{
								"patchline" : 								{
									"source" : [ "obj-39", 0 ],
									"destination" : [ "obj-14", 0 ],
									"hidden" : 0,
									"midpoints" : [ 629.5, 786.0, 882.0, 786.0, 882.0, 582.0, 906.5, 582.0 ]
								}

							}
, 							{
								"patchline" : 								{
									"source" : [ "obj-14", 0 ],
									"destination" : [ "obj-9", 0 ],
									"hidden" : 0,
									"midpoints" : [  ]
								}

							}
, 							{
								"patchline" : 								{
									"source" : [ "obj-17", 0 ],
									"destination" : [ "obj-78", 0 ],
									"hidden" : 0,
									"midpoints" : [ 800.5, 363.0, 18.0, 363.0, 18.0, 141.0, 42.5, 141.0 ]
								}

							}
, 							{
								"patchline" : 								{
									"source" : [ "obj-1", 0 ],
									"destination" : [ "obj-16", 0 ],
									"hidden" : 0,
									"midpoints" : [ 502.5, 390.0, 251.5, 390.0 ]
								}

							}
, 							{
								"patchline" : 								{
									"source" : [ "obj-18", 0 ],
									"destination" : [ "obj-14", 1 ],
									"hidden" : 0,
									"midpoints" : [  ]
								}

							}
, 							{
								"patchline" : 								{
									"source" : [ "obj-107", 0 ],
									"destination" : [ "obj-105", 0 ],
									"hidden" : 0,
									"midpoints" : [ 875.5, 276.0, 875.5, 276.0 ]
								}

							}
, 							{
								"patchline" : 								{
									"source" : [ "obj-105", 0 ],
									"destination" : [ "obj-17", 1 ],
									"hidden" : 0,
									"midpoints" : [ 875.5, 315.0, 837.0, 315.0, 837.0, 309.0, 817.5, 309.0 ]
								}

							}
 ]
					}
,
					"saved_object_attributes" : 					{
						"fontname" : "Arial",
						"globalpatchername" : "",
						"default_fontface" : 0,
						"fontface" : 0,
						"fontsize" : 12.0,
						"default_fontname" : "Arial",
						"default_fontsize" : 12.0
					}

				}

			}
, 			{
				"box" : 				{
					"maxclass" : "newobj",
					"text" : "mxj autobot",
					"id" : "obj-19",
					"fontname" : "Arial",
					"fontsize" : 12.0,
					"numinlets" : 1,
					"patching_rect" : [ 85.0, 334.0, 73.0, 20.0 ],
					"numoutlets" : 0
				}

			}
, 			{
				"box" : 				{
					"maxclass" : "message",
					"text" : "keypress $1",
					"id" : "obj-18",
					"fontname" : "Arial",
					"fontsize" : 12.0,
					"numinlets" : 2,
					"patching_rect" : [ 85.0, 300.0, 75.0, 18.0 ],
					"numoutlets" : 1,
					"outlettype" : [ "" ]
				}

			}
, 			{
				"box" : 				{
					"maxclass" : "message",
					"text" : "119",
					"id" : "obj-4",
					"fontname" : "Arial",
					"fontsize" : 12.0,
					"numinlets" : 2,
					"patching_rect" : [ 85.0, 256.0, 32.5, 18.0 ],
					"numoutlets" : 1,
					"outlettype" : [ "" ]
				}

			}
, 			{
				"box" : 				{
					"maxclass" : "panel",
					"id" : "obj-45",
					"presentation_rect" : [ 563.0, 120.0, 133.0, 81.0 ],
					"numinlets" : 1,
					"patching_rect" : [ 673.0, 242.0, 128.0, 128.0 ],
					"presentation" : 1,
					"numoutlets" : 0
				}

			}
 ],
		"lines" : [ 			{
				"patchline" : 				{
					"source" : [ "obj-18", 0 ],
					"destination" : [ "obj-19", 0 ],
					"hidden" : 0,
					"midpoints" : [  ]
				}

			}
, 			{
				"patchline" : 				{
					"source" : [ "obj-4", 0 ],
					"destination" : [ "obj-18", 0 ],
					"hidden" : 0,
					"midpoints" : [  ]
				}

			}
, 			{
				"patchline" : 				{
					"source" : [ "obj-3", 1 ],
					"destination" : [ "obj-4", 0 ],
					"hidden" : 0,
					"midpoints" : [  ]
				}

			}
, 			{
				"patchline" : 				{
					"source" : [ "obj-120", 0 ],
					"destination" : [ "obj-3", 0 ],
					"hidden" : 0,
					"midpoints" : [  ]
				}

			}
, 			{
				"patchline" : 				{
					"source" : [ "obj-3", 0 ],
					"destination" : [ "obj-79", 0 ],
					"hidden" : 0,
					"midpoints" : [ 60.5, 249.0, 36.0, 249.0, 36.0, 63.0, 80.5, 63.0 ]
				}

			}
, 			{
				"patchline" : 				{
					"source" : [ "obj-5", 0 ],
					"destination" : [ "obj-120", 0 ],
					"hidden" : 0,
					"midpoints" : [  ]
				}

			}
, 			{
				"patchline" : 				{
					"source" : [ "obj-20", 0 ],
					"destination" : [ "obj-22", 0 ],
					"hidden" : 0,
					"midpoints" : [  ]
				}

			}
, 			{
				"patchline" : 				{
					"source" : [ "obj-2", 0 ],
					"destination" : [ "obj-20", 0 ],
					"hidden" : 0,
					"midpoints" : [  ]
				}

			}
, 			{
				"patchline" : 				{
					"source" : [ "obj-7", 0 ],
					"destination" : [ "obj-10", 0 ],
					"hidden" : 0,
					"midpoints" : [  ]
				}

			}
, 			{
				"patchline" : 				{
					"source" : [ "obj-7", 0 ],
					"destination" : [ "obj-11", 0 ],
					"hidden" : 0,
					"midpoints" : [  ]
				}

			}
, 			{
				"patchline" : 				{
					"source" : [ "obj-14", 0 ],
					"destination" : [ "obj-17", 0 ],
					"hidden" : 0,
					"midpoints" : [  ]
				}

			}
, 			{
				"patchline" : 				{
					"source" : [ "obj-17", 0 ],
					"destination" : [ "obj-11", 1 ],
					"hidden" : 0,
					"midpoints" : [ 448.5, 318.0, 342.0, 318.0, 342.0, 282.0, 321.5, 282.0 ]
				}

			}
, 			{
				"patchline" : 				{
					"source" : [ "obj-21", 0 ],
					"destination" : [ "obj-10", 0 ],
					"hidden" : 0,
					"midpoints" : [  ]
				}

			}
, 			{
				"patchline" : 				{
					"source" : [ "obj-11", 0 ],
					"destination" : [ "obj-27", 0 ],
					"hidden" : 0,
					"midpoints" : [  ]
				}

			}
, 			{
				"patchline" : 				{
					"source" : [ "obj-27", 0 ],
					"destination" : [ "obj-10", 0 ],
					"hidden" : 0,
					"midpoints" : [ 271.5, 333.0, 249.0, 333.0, 249.0, 300.0, 237.5, 300.0 ]
				}

			}
, 			{
				"patchline" : 				{
					"source" : [ "obj-10", 0 ],
					"destination" : [ "obj-24", 0 ],
					"hidden" : 0,
					"midpoints" : [ 237.5, 324.0, 195.0, 324.0, 195.0, 234.0, 159.5, 234.0 ]
				}

			}
, 			{
				"patchline" : 				{
					"source" : [ "obj-3", 1 ],
					"destination" : [ "obj-24", 1 ],
					"hidden" : 0,
					"midpoints" : [  ]
				}

			}
, 			{
				"patchline" : 				{
					"source" : [ "obj-24", 0 ],
					"destination" : [ "obj-7", 0 ],
					"hidden" : 0,
					"midpoints" : [ 159.5, 279.0, 249.0, 279.0, 249.0, 243.0, 271.5, 243.0 ]
				}

			}
, 			{
				"patchline" : 				{
					"source" : [ "obj-23", 0 ],
					"destination" : [ "obj-2", 0 ],
					"hidden" : 0,
					"midpoints" : [  ]
				}

			}
 ]
	}

}
