#N canvas -21 508 714 323 10;
#X declare -lib mrpeach;
#X obj 94 41 import mrpeach;
#X obj 103 142 unpackOSC;
#X obj 40 198 print;
#X obj 104 106 udpreceive 9001;
#X obj 103 190 routeOSC /Score;
#X obj 104 236 nbx 5 14 -1e+37 1e+37 0 0 empty empty empty 0 -8 0 10
-262144 -1 -1 1 256;
#X obj 221 189 routeOSC /Collision/Object/Id;
#X obj 221 235 nbx 5 14 -1e+37 1e+37 0 0 empty empty empty 0 -8 0 10
-262144 -1 -1 0 256;
#X obj 380 90 routeOSC /Collision/Object/Name;
#X obj 412 189 routeOSC /Collision/Object/Position;
#X obj 411 227 unpack f f f;
#X text 512 226;
#X floatatom 377 269 5 0 0 0 - - -;
#X floatatom 426 267 5 0 0 0 - - -;
#X floatatom 479 269 5 0 0 0 - - -;
#X connect 1 0 2 0;
#X connect 1 0 4 0;
#X connect 1 0 6 0;
#X connect 1 0 8 0;
#X connect 1 0 9 0;
#X connect 3 0 1 0;
#X connect 4 0 5 0;
#X connect 6 0 7 0;
#X connect 9 0 10 0;
#X connect 10 0 12 0;
#X connect 10 1 13 0;
#X connect 10 2 14 0;
